<svg viewBox="0 0 81 28" fill="none" xmlns="http://www.w3.org/2000/svg">
<path d="M24.1663 25.2H19.0272L15.2483 16.9887C14.0909 17.6184 13.2122 18.7104 12.2947 19.8508C11.5768 20.743 10.8351 21.6648 9.91755 22.4178C8.84958 23.2938 7.60818 24.0694 6.05643 24.5986C5.35357 24.8358 4.15781 25.1461 3.71054 25.1917C3.51886 25.2099 3.39106 25.2008 3.36368 25.137C3.34542 25.0822 3.39106 25.0457 3.59188 24.9453C3.63249 24.9259 3.69564 24.8974 3.77538 24.8615C4.14377 24.6956 4.86592 24.3704 5.35357 24.0329C6.09294 23.5128 6.51282 22.9562 6.54934 22.5273C6.51207 22.3953 6.43175 22.233 6.33508 22.0378C5.91079 21.1808 5.17157 19.6878 6.3759 17.3172C6.58869 16.8954 6.78968 16.5223 6.97532 16.1777C7.25156 15.6649 7.4938 15.2153 7.69033 14.7623C8.06458 13.8955 8.33841 12.6728 8.42969 11.7603C8.43882 11.7056 8.44795 11.7056 8.47533 11.7421C9.19644 12.472 11.9896 15.3372 11.5788 18.1932C12.5099 17.8373 14.1164 16.7515 14.8558 16.1766C15.0295 16.0413 15.1898 15.9051 15.3431 15.7749C15.8827 15.3166 16.3358 14.9316 16.9826 14.9174C17.3981 14.9123 17.6003 15.0224 17.803 15.1329C17.961 15.2189 18.1193 15.3052 18.3792 15.3372C18.5252 15.3554 18.7443 15.328 18.8538 15.2733C18.8995 15.255 18.8903 15.2003 18.8173 15.182C18.4831 15.1023 18.2531 14.942 18.0236 14.782C17.7015 14.5575 17.3802 14.3335 16.7726 14.3335C16.0722 14.3335 15.475 14.819 14.9928 15.211C14.8342 15.34 14.6879 15.4589 14.5546 15.547L11.9166 10.054C10.8212 7.75464 11.1498 6.08485 13.5779 2.8L24.1663 25.2Z" fill="#000000"/>
<path d="M32.5544 25.2092H29.3687C28.0269 25.2092 27.3423 24.9125 26.8494 24.2542C26.32 23.5588 26.32 22.4926 26.32 21.4913V2.80916H30.4276V22.0939C30.4276 23.6237 30.5919 24.7085 32.5544 25.1443V25.2092Z" fill="#000000"/>
<path d="M37.2087 25.2092H40.3944V25.1443C38.4319 24.7085 38.2676 23.6237 38.2676 22.0939V2.80916H34.16V21.4913C34.16 22.4926 34.16 23.5588 34.6894 24.2542C35.1823 24.9125 35.8669 25.2092 37.2087 25.2092Z" fill="#000000"/>
<path fill-rule="evenodd" clip-rule="evenodd" d="M45.3251 8.18349H43.8098L43.5999 8.66709H42.7875L44.4123 4.97164H44.7226L46.3474 8.66709H45.535L45.3251 8.18349ZM44.5766 6.32208L44.0928 7.56302H45.0695L44.5766 6.32208Z" fill="#000000"/>
<path d="M51.1301 5.82022C50.9658 5.52823 50.7376 5.30924 50.4546 5.145C50.1716 4.98076 49.8522 4.89864 49.4962 4.89864C48.9485 4.89864 48.483 5.08113 48.0996 5.44611C47.7162 5.81109 47.5245 6.26732 47.5245 6.80567C47.5245 7.35315 47.7071 7.80937 48.0905 8.17436C48.4647 8.53934 48.9302 8.72183 49.487 8.72183C49.843 8.72183 50.1625 8.63971 50.4546 8.47547C50.7467 8.31123 50.9658 8.09224 51.1301 7.80025L50.555 7.39877C50.2903 7.80937 49.9434 8.01924 49.4962 8.01924C49.1493 8.01924 48.8663 7.90974 48.6381 7.68163C48.4099 7.46264 48.3004 7.17065 48.3004 6.8148C48.3004 6.45894 48.4099 6.16695 48.6381 5.93884C48.8663 5.71072 49.1493 5.60123 49.4962 5.60123C49.9434 5.60123 50.2903 5.81109 50.555 6.2217L51.1301 5.82022Z" fill="#000000"/>
<path d="M55.5023 5.145C55.7852 5.30924 56.0134 5.52823 56.1777 5.82022L55.6027 6.2217C55.338 5.81109 54.9911 5.60123 54.5438 5.60123C54.197 5.60123 53.914 5.71072 53.6858 5.93884C53.4576 6.16695 53.3481 6.45894 53.3481 6.8148C53.3481 7.17065 53.4576 7.46264 53.6858 7.68163C53.914 7.90974 54.197 8.01924 54.5438 8.01924C54.9911 8.01924 55.338 7.80937 55.6027 7.39877L56.1777 7.80025C56.0134 8.09224 55.7943 8.31123 55.5023 8.47547C55.2102 8.63971 54.8907 8.72183 54.5347 8.72183C53.9779 8.72183 53.5124 8.53934 53.1381 8.17436C52.7547 7.80937 52.5722 7.35315 52.5722 6.80567C52.5722 6.26732 52.7639 5.81109 53.1472 5.44611C53.5306 5.08113 53.9961 4.89864 54.5438 4.89864C54.8998 4.89864 55.2193 4.98076 55.5023 5.145Z" fill="#000000"/>
<path fill-rule="evenodd" clip-rule="evenodd" d="M61.5638 6.81483C61.5638 6.27648 61.3721 5.82025 60.9888 5.45527C60.5963 5.08116 60.1307 4.9078 59.5922 4.9078C59.0536 4.9078 58.5881 5.09029 58.2047 5.45527C57.8214 5.82025 57.6297 6.27648 57.6297 6.81483C57.6297 7.36231 57.8214 7.81853 58.2047 8.18352C58.579 8.5485 59.0445 8.73099 59.5922 8.73099C60.1399 8.73099 60.6054 8.5485 60.9888 8.18352C61.3721 7.80941 61.5638 7.35318 61.5638 6.81483ZM58.4056 6.81483C58.4056 6.45897 58.5151 6.16699 58.7433 5.93887C58.9715 5.71076 59.2545 5.60126 59.6013 5.60126C59.9391 5.60126 60.222 5.71076 60.4502 5.93887C60.6784 6.16699 60.788 6.45897 60.788 6.81483C60.788 7.17069 60.6784 7.46268 60.4502 7.69079C60.222 7.9189 59.9391 8.0284 59.6013 8.0284C59.2545 8.0284 58.9624 7.9189 58.7433 7.69079C58.5151 7.46268 58.4056 7.17069 58.4056 6.81483Z" fill="#000000"/>
<path fill-rule="evenodd" clip-rule="evenodd" d="M65.6075 8.66709L64.6491 7.36228H64.0923V8.66709H63.3347V4.97164H64.7221C65.1146 4.97164 65.4341 5.08114 65.6806 5.30013C65.927 5.51912 66.0548 5.8111 66.0548 6.16696C66.0548 6.4042 66 6.61407 65.8814 6.78743C65.7627 6.96992 65.6075 7.10679 65.4067 7.20716L66.4564 8.66709H65.6075ZM64.7221 6.69619C64.8956 6.69619 65.0325 6.65056 65.1329 6.55019C65.2333 6.44982 65.2789 6.32208 65.2789 6.16696C65.2789 6.01184 65.2242 5.8841 65.1238 5.78373C65.0234 5.68336 64.8864 5.63774 64.713 5.63774H64.0832V6.69619H64.7221Z" fill="#000000"/>
<path d="M45.1695 16.0671H43.5539V13.056H42.7962V16.7514H45.1695V16.0671Z" fill="#000000"/>
<path d="M47.4979 16.7514H46.7403V13.056H47.4979V16.7514Z" fill="#000000"/>
<path d="M50.9745 16.7424L52.5901 13.0469H51.7412L50.8193 15.2916L49.8974 13.0469H49.0394L50.6641 16.7424H50.9745Z" fill="#000000"/>
<path d="M56.6249 13.7312H54.8906V14.4794H56.1594V15.1272H54.8906V16.0671H56.6888V16.7514H54.133V13.056H56.6249V13.7312Z" fill="#000000"/>
<path d="M45.1695 24.3823H43.5539V21.3712H42.7962V25.0666H45.1695V24.3823Z" fill="#000000"/>
<path d="M47.4979 25.0666H46.7403V21.3712H47.4979V25.0666Z" fill="#000000"/>
<path d="M53.0558 25.0666V21.362H52.7546L51.2394 23.3056L49.7241 21.362H49.432V25.0666H50.1896V23.0866L51.1207 24.2545H51.3672L52.2982 23.0866V25.0666H53.0558Z" fill="#000000"/>
<path d="M55.7579 25.0666H55.0003V21.3712H55.7579V25.0666Z" fill="#000000"/>
<path d="M59.236 22.0464H60.4226V21.3712H57.2917V22.0464H58.4783V25.0575H59.236V22.0464Z" fill="#000000"/>
<path d="M62.7317 24.3823H64.3473V25.0666H61.9741V21.3712H62.7317V24.3823Z" fill="#000000"/>
<path d="M66.6757 22.0464H68.41V21.3712H65.9181V25.0666H68.4739V24.3823H66.6757V23.4425H67.9445V22.7946H66.6757V22.0464Z" fill="#000000"/>
<path d="M72.0328 21.4899C72.2427 21.6176 72.3979 21.791 72.5165 22.0008L72.0054 22.4023C71.8137 22.1195 71.5764 21.9735 71.3025 21.9735C71.1747 21.9735 71.0652 22.0008 70.9739 22.0647C70.8826 22.1286 70.8461 22.2107 70.8461 22.3293C70.8461 22.4297 70.8826 22.5027 70.9465 22.5574C71.0104 22.6122 71.12 22.6761 71.2843 22.7491L71.7041 22.9316C72.0145 23.0684 72.2427 23.2235 72.3979 23.3878C72.5439 23.552 72.6261 23.7619 72.6261 24.0082C72.6261 24.3459 72.5074 24.6105 72.2609 24.8112C72.0145 25.012 71.7041 25.1123 71.3299 25.1123C71.0195 25.1123 70.7366 25.0393 70.4901 24.8933C70.2437 24.7473 70.0429 24.5466 69.9059 24.3002L70.4262 23.9079C70.6818 24.2637 70.983 24.4462 71.3299 24.4462C71.4942 24.4462 71.622 24.4097 71.7133 24.3367C71.8046 24.2637 71.8502 24.1634 71.8502 24.0356C71.8502 23.9626 71.8319 23.8988 71.7863 23.8349C71.7407 23.7801 71.695 23.7345 71.6402 23.7071C71.6282 23.7011 71.6149 23.6942 71.6 23.6866C71.5472 23.6593 71.475 23.622 71.3755 23.5794L70.9739 23.3969C70.6818 23.2692 70.4627 23.114 70.3076 22.9498C70.1524 22.7856 70.0794 22.5757 70.0794 22.3293C70.0794 22.0191 70.198 21.7636 70.4262 21.572C70.6544 21.3804 70.9557 21.28 71.3025 21.28C71.5855 21.2983 71.8319 21.3621 72.0328 21.4899Z" fill="#000000"/>
<path d="M76.652 22.0008C76.5333 21.791 76.3782 21.6176 76.1682 21.4899C75.9583 21.3621 75.7118 21.2983 75.438 21.28C75.0911 21.28 74.7899 21.3804 74.5617 21.572C74.3335 21.7636 74.2148 22.0191 74.2148 22.3293C74.2148 22.5757 74.2879 22.7856 74.443 22.9498C74.5982 23.114 74.8173 23.2692 75.1094 23.3969L75.511 23.5794C75.6105 23.622 75.6824 23.6591 75.7351 23.6864C75.7501 23.6941 75.7636 23.7011 75.7757 23.7071C75.8305 23.7345 75.8761 23.7801 75.9218 23.8349C75.9674 23.8988 75.9857 23.9626 75.9857 24.0356C75.9857 24.1634 75.94 24.2637 75.8487 24.3367C75.7575 24.4097 75.6297 24.4462 75.4654 24.4462C75.1185 24.4462 74.8173 24.2637 74.5617 23.9079L74.0414 24.3002C74.1783 24.5466 74.3791 24.7473 74.6256 24.8933C74.872 25.0393 75.155 25.1123 75.4654 25.1123C75.8396 25.1123 76.15 25.012 76.3964 24.8112C76.6429 24.6105 76.7616 24.3459 76.7616 24.0082C76.7616 23.7619 76.6794 23.552 76.5333 23.3878C76.3782 23.2235 76.15 23.0684 75.8396 22.9316L75.4197 22.7491C75.2554 22.6761 75.1459 22.6122 75.082 22.5574C75.0181 22.5027 74.9816 22.4297 74.9816 22.3293C74.9816 22.2107 75.0181 22.1286 75.1094 22.0647C75.2007 22.0008 75.3102 21.9735 75.438 21.9735C75.7118 21.9735 75.9492 22.1195 76.1408 22.4023L76.652 22.0008Z" fill="#000000"/>
</svg>
