<svg id="Layer_1" data-name="Layer 1" xmlns="http://www.w3.org/2000/svg" viewBox="0 0 146 58"><defs><style>.cls-1{fill:#000;}</style></defs><title>footerlockup</title><path class="cls-1" d="M11.84,11.66V41.4H41.57V11.66Zm20,22.85-1.64-4.35h-6.9L21.62,34.5H18.33l6-16h3.29L24.42,27H32.3l2.79,7.43Z"/><path class="cls-1" d="M54.92,30.16l-1.83,4.31H51.23l7-15.93,6.83,15.93H63.21l-1.8-4.31Zm3.29-7.67-2.6,6.09h5.14Z"/><path class="cls-1" d="M68.16,26h0a2.47,2.47,0,0,1,2.1-1.29,2.78,2.78,0,0,1,1.45.45L71,26.63a1.65,1.65,0,0,0-1-.43c-1.77,0-1.86,2.28-1.86,3.51v4.74H66.51V25h1.61Z"/><path class="cls-1" d="M75.18,34.47H73.57v-8h-1V25h1V21.6h1.61V25h1.69v1.5H75.18Z"/><path class="cls-1" d="M91.63,22.23A2.79,2.79,0,0,0,89,20.58a2.41,2.41,0,0,0-2.5,2.32v0c0,1.31,1.35,1.91,2.37,2.38l1,.44c2,.87,3.65,1.86,3.65,4.27A4.79,4.79,0,0,1,84,30.8l1.65-.46a3.12,3.12,0,0,0,3,2.82,3.06,3.06,0,0,0,3.13-3h0c0-1.78-1.39-2.38-2.8-3l-.93-.4c-1.78-.81-3.31-1.71-3.31-3.89A4,4,0,0,1,88.88,19h.17A4.36,4.36,0,0,1,93,21.36Z"/><path class="cls-1" d="M96.81,30.08a3.07,3.07,0,0,0,3,3.16h.12a3.24,3.24,0,0,0,2.88-2l1.37.79a4.78,4.78,0,0,1-4.37,2.66,4.59,4.59,0,0,1-4.65-4.53c0-.12,0-.23,0-.35,0-2.8,1.64-5.12,4.6-5.12s4.66,2.52,4.49,5.35Zm5.7-1.38a2.89,2.89,0,0,0-2.78-2.48,3,3,0,0,0-2.88,2.48Z"/><path class="cls-1" d="M108.13,26h0a2.47,2.47,0,0,1,2.1-1.29,2.78,2.78,0,0,1,1.45.45l-.77,1.47a1.57,1.57,0,0,0-1-.43c-1.78,0-1.86,2.28-1.86,3.51v4.74h-1.54V25h1.61Z"/><path class="cls-1" d="M115.17,21.43A1.15,1.15,0,1,1,114,20.28h0A1.17,1.17,0,0,1,115.17,21.43Zm-.35,13h-1.61V25h1.61Z"/><path class="cls-1" d="M118.63,30.08a3.07,3.07,0,0,0,3,3.16h.13a3.24,3.24,0,0,0,2.88-2L126,32a4.78,4.78,0,0,1-4.37,2.66A4.59,4.59,0,0,1,117,30.16c0-.12,0-.23,0-.35,0-2.8,1.63-5.12,4.6-5.12s4.65,2.52,4.49,5.35Zm5.75-1.38a2.89,2.89,0,0,0-2.78-2.48,3,3,0,0,0-2.89,2.48Z"/><path class="cls-1" d="M132,27.19a1.55,1.55,0,0,0-1.29-1,1.15,1.15,0,0,0-1.17,1c0,.87,1.09,1.19,2.2,1.66S134,30,134,31.62a3.1,3.1,0,0,1-3.12,3.08h-.08a3.41,3.41,0,0,1-3.35-2.4l1.43-.6c.41.88.87,1.51,1.94,1.51a1.42,1.42,0,0,0,1.52-1.33.49.49,0,0,0,0-.12c0-2.12-4.27-1.39-4.27-4.38a2.7,2.7,0,0,1,2.72-2.68h.1a2.86,2.86,0,0,1,2.52,1.76Z"/></svg>