<svg id="Layer_1" data-name="Layer 1" xmlns="http://www.w3.org/2000/svg" viewBox="0 0 152.21 58"><defs><style>.cls-1{fill:#000;}</style></defs><title>footerlockup</title><path class="cls-1" d="M109.12,30.24a3,3,0,0,1,3.13-2.37c1.76,0,2.82.82,3.06,2.37Zm9.29,1.43c0-4-2.32-6.35-6.22-6.35a6.17,6.17,0,0,0-6.38,5.94c0,.18,0,.37,0,.56,0,4,2.5,6.52,6.37,6.52a6.47,6.47,0,0,0,6.07-3.61l.07-.11-2.51-1.4-.06.11a3.67,3.67,0,0,1-3.62,2.27c-1.86,0-3.06-1.23-3.23-3.29h9.5Zm-16-6.35a2.92,2.92,0,0,0-2.83,1.83V25.7h-3V37.85h3V32.52c0-3.3.68-4.6,2.41-4.6a2.55,2.55,0,0,1,1.6.47l.13.08,1.08-2.55-.1-.05A5.05,5.05,0,0,0,102.41,25.32Zm-16-3.27v4.32h7.26v2.86H86.41v8.62H83.18V19.26H93.67v2.79ZM81,37.85H77.18L72,31.92v5.93H69V19.1h3V30.48l4.82-4.76h3.71s-5.36,5.2-5.52,5.37l6,6.76ZM58.82,35.68c-2,0-3.15-1.39-3.15-3.83S56.87,28,58.87,28,62,29.35,62,31.75,60.73,35.68,58.82,35.68Zm3.11-10v1.57a4.21,4.21,0,0,0-3.88-2c-3.27,0-5.48,2.59-5.48,6.46s2.13,6.56,5.55,6.56a4.68,4.68,0,0,0,3.81-1.8v1.31h3V25.72Zm-21,4.52a2.94,2.94,0,0,1,3.12-2.37c1.77,0,2.82.82,3.07,2.37Zm9.29,1.43c0-4-2.32-6.35-6.22-6.35a6.17,6.17,0,0,0-6.38,5.94c0,.18,0,.37,0,.56,0,4,2.51,6.52,6.37,6.52a6.47,6.47,0,0,0,6.07-3.61l.06-.11-2.5-1.4-.06.11A3.69,3.69,0,0,1,44,35.56c-1.87,0-3.06-1.23-3.23-3.29h9.5v-.64ZM36.61,25.88l-1.08,2.55-.13-.08a2.61,2.61,0,0,0-1.6-.47c-1.74,0-2.42,1.3-2.42,4.6v5.33h-3V25.7h3v1.45a2.94,2.94,0,0,1,2.84-1.83,5.05,5.05,0,0,1,2.29.55l.1.05Zm-20.2,3.63h1.8a5.14,5.14,0,0,1,2.36.39,2.56,2.56,0,0,1,1.34,2.44,2.61,2.61,0,0,1-1.11,2.23c-.66.46-1.78.54-3.49.54h-.9Zm1-2.5h-1V22h1c2.58,0,3.79.38,3.79,2.58C21.2,26.36,20.2,27,17.41,27Zm4.68,1a3.76,3.76,0,0,0,2.32-3.82,4.79,4.79,0,0,0-1.86-4c-1.16-.88-2.72-1-4.61-1H13.21V37.85H18c2.66,0,4.38-.1,5.71-1.42a5.52,5.52,0,0,0,1.52-3.91c0-2.36-1.2-4.05-3.15-4.54"/><path class="cls-1" d="M134.41,22.66c-5,0-10.85,3.59-13,8-1.18,2.44-1,4.63.25,6.1v.06c-.55-1.15-.45-2.75.4-4.68,1.71-3.88,5.55-6.59,9.35-6.59s5.23,2.4,3.46,6.44l-.33.72h-9.46c-.67,2,0,3.11,1.76,3.11s3-.65,4.51-2.23l.19-.19,2,1.5-.18.18a11.19,11.19,0,0,1-6.83,3.59h.33c5-.12,10.63-3.65,12.74-8s-.19-8-5.23-8"/><path class="cls-1" d="M130.28,28.29a4.7,4.7,0,0,0-3.94,2.18h5.9c.36-1.41-.3-2.18-2-2.18"/></svg>