<svg id="Layer_1" data-name="Layer 1" xmlns="http://www.w3.org/2000/svg" viewBox="0 0 128 58"><defs><style>.cls-1{fill:#000;}</style></defs><title>footerlockup</title><path class="cls-1" d="M34.12,38.17V22.58a4.14,4.14,0,1,0-8.27-.41,2.81,2.81,0,0,0,0,.41V38.17H23.19V22.58a4.17,4.17,0,0,0-4-4.37h-.18a4.22,4.22,0,0,0-4.14,4.3V38.17h-2.6V22.58c0-3,2.52-6.07,6.74-6.07A6.93,6.93,0,0,1,24.51,19,6.91,6.91,0,0,1,30,16.5c4.22,0,6.74,3.09,6.74,6.07v15.6Z"/><path class="cls-1" d="M45.86,38.68c-4.77,0-7.62-3.23-7.62-6.36A6.56,6.56,0,0,1,45,26h5.83V23.38c0-2.73-2.59-4.57-5-4.57h-4.8V17h4.8c4.76,0,7.61,3.24,7.61,6.36V32.3c0,3.13-2.85,6.36-7.61,6.36Zm-.78-10.94a4.55,4.55,0,0,0-4.23,4.58,4.87,4.87,0,0,0,5,4.67,4.81,4.81,0,0,0,5-4.61V27.74Z"/><path class="cls-1" d="M97.34,38.68c-4.76,0-7.61-3.23-7.61-6.36A6.54,6.54,0,0,1,96.5,26h5.85V23.38a4.88,4.88,0,0,0-5-4.67H92.51V17H97.3c4.77,0,7.62,3.24,7.62,6.36V26h12v1.69h-12v4.68c0,3.13-2.85,6.36-7.62,6.36Zm-.77-11a4.66,4.66,0,0,0-4.23,4.68,5,5,0,0,0,10,0V27.64Z"/><path class="cls-1" d="M68,38.17V22.86a4.79,4.79,0,0,0-4.92-4.66H63a4.85,4.85,0,0,0-5,4.66V38.17H55.4V22.86c0-3.12,2.85-6.35,7.62-6.35s7.61,3.23,7.61,6.35V38.17Z"/><path class="cls-1" d="M78.51,38.68C75.08,38.68,73,36.32,73,34V12.93h2.62V17h3.85v1.71H75.69V34a2.8,2.8,0,0,0,2.61,3h.21A2.29,2.29,0,0,0,79,37l.43-.07v1.75h-.95Z"/><path class="cls-1" d="M81.38,17H84v1.51A8.4,8.4,0,0,1,89,17h2.86v1.71H89a4.89,4.89,0,0,0-5,4.66V38.16H81.36Z"/></svg>