<svg id="Layer_1" data-name="Layer 1" xmlns="http://www.w3.org/2000/svg" viewBox="0 0 124 58"><defs><style>.cls-1{fill:#000;}</style></defs><title>footerlockup</title><path class="cls-1" d="M102.08,27.48l0,2.45a9.89,9.89,0,0,0,4.52,1.16c2.65,0,5.39-1.69,5.39-4.3a3.41,3.41,0,0,0-1.4-2.93,8.35,8.35,0,0,0-1.48-.85c-.56-.26-1.16-.5-1.76-.76-2.37-1-3.49-1.56-3.49-3,0-1,.71-2.45,2.92-2.45a4.53,4.53,0,0,1,3.89,2.2l-.09-2.08a7.66,7.66,0,0,0-3.45-.77c-2.36,0-5.05,1.23-5.05,3.72,0,1.7,1.15,2.76,3.58,3.82.59.26,1.16.48,1.67.71a8,8,0,0,1,1.36.7A2.53,2.53,0,0,1,110,27.39c0,1.12-.74,3.06-3.54,3.06a4.73,4.73,0,0,1-4.4-3M14.82,24.1A8.76,8.76,0,0,0,19.94,24c.81-.31,2.94-1.45,2.94-3.73,0-1.6-1.09-3.86-6.27-3.86H12.16a1.12,1.12,0,0,1,.46.94V29.9a1.26,1.26,0,0,1-.49,1h3a1.26,1.26,0,0,1-.49-1V24.07ZM14.65,17h1.88c2.7,0,4.14,1.28,4.14,3.35,0,3.13-3.21,3.54-4.6,3.54a4.57,4.57,0,0,1-1.33-.16h-.09ZM96.51,31H94.74a1.85,1.85,0,0,1-1.43-.69c-.88-1.08-1.51-2-2.13-2.78-.45-.57-.82-1.2-1.73-1.2h-1v4a.76.76,0,0,0,.49.66h-2.6a.75.75,0,0,0,.47-.66V21.82a.71.71,0,0,0-.47-.66h3.28c3.49,0,4.24,1.51,4.24,2.42,0,1.57-1.67,2.37-2.75,2.44a2.69,2.69,0,0,1,1.68,1.08,33.77,33.77,0,0,0,2.62,3.34A3.47,3.47,0,0,0,96.51,31ZM92.1,23.6c0-.67-.5-1.88-2.35-1.88H88.44v4h1c1.3.08,2.62-.57,2.62-2.1ZM79.26,31l.37-1.54c-.64.91-1.3.9-3.18.91a13.2,13.2,0,0,1-2-.08V26.16h3.16a.82.82,0,0,1,.61.41V25.16a.83.83,0,0,1-.61.4H74.45v-3.8h3a1.86,1.86,0,0,1,1.47.52V21.14H72.37a.69.69,0,0,1,.48.66v8.56c0,.34-.2.51-.52.65ZM65.51,23.86a3,3,0,0,1-2.1,2.56,5.87,5.87,0,0,1-3.47.1v3.85a.7.7,0,0,0,.49.66h-2.6a.76.76,0,0,0,.49-.66V21.82a.71.71,0,0,0-.49-.66h3.33C64.61,21.16,65.51,22.73,65.51,23.86Zm-1.73,0c0-1.32-.91-2.15-2.67-2.15H59.94V26a2.78,2.78,0,0,0,.86.1c.9,0,2.94-.22,2.94-2.21ZM51,23.86a3,3,0,0,1-2.09,2.56,5.87,5.87,0,0,1-3.47.1v3.85a.7.7,0,0,0,.49.66h-2.6a.76.76,0,0,0,.49-.66V21.82a.73.73,0,0,0-.49-.66h3.33c3.45,0,4.3,1.57,4.3,2.7Zm-1.72,0c0-1.32-.91-2.15-2.67-2.15H45.44V26a2.68,2.68,0,0,0,.85.1c.91,0,3-.22,3-2.21ZM36.28,31h-7c.31-.14.52-.31.52-.65V21.82a.71.71,0,0,0-.49-.66h6.56V22.3a1.86,1.86,0,0,0-1.47-.52h-3v3.8h3.15a.83.83,0,0,0,.62-.4v1.41a.82.82,0,0,0-.62-.41H31.4v4.16c.39,0,1.2.08,2,.08,1.87,0,2.53,0,3.18-.91Z"/><path class="cls-1" d="M21.16,33.58s16.76,6.64,40.65,6.64,40.61-6.64,40.61-6.64-15.36,8-40.61,8-40.65-8-40.65-8"/></svg>