<?xml version="1.0" encoding="utf-8"?>
<!-- Generator: Adobe Illustrator 24.2.1, SVG Export Plug-In . SVG Version: 6.00 Build 0)  -->
<svg version="1.1" id="Layer_1" xmlns="http://www.w3.org/2000/svg" xmlns:xlink="http://www.w3.org/1999/xlink" x="0px" y="0px"
	 viewBox="0 0 99.1 58" style="enable-background:new 0 0 99.1 58;" xml:space="preserve">
<style type="text/css">
	.st0{fill-rule:evenodd;clip-rule:evenodd;}
</style>
<g>
	<polygon id="Fill-1" class="st0" points="38.8,10.6 38.8,11.9 41,11.9 41,18.2 42.6,18.2 42.6,11.9 44.6,11.9 45,10.6 	"/>
	<polygon id="Fill-2" class="st0" points="52.8,10.6 52.8,13.6 49.4,13.6 49.4,10.6 47.8,10.6 47.8,18.2 49.4,18.2 49.4,15 52.8,15 
		52.8,18.2 54.4,18.2 54.4,10.6 	"/>
	<polygon id="Fill-3" class="st0" points="57.6,10.6 57.6,18.2 62,18.2 62,17 59.2,17 59.2,15 61.6,15 61.6,13.8 59.2,13.8 
		59.2,11.9 61.6,11.9 62.1,10.6 	"/>
	<g id="Group-15" transform="translate(0.000000, 30.821800)">
		<g id="Group-6">
			<g id="Clip-5">
			</g>
			<path id="Fill-4" class="st0" d="M8.7,7.7c1.2,0.8,2.5,1.3,4,1.3c1.3,0,2.8-0.5,2.8-1.9c0-3.2-7.6-2.8-7.6-8.2c0-2.7,2.1-5,6-5
				c1.9,0,3.4,0.4,4.5,0.9v3.3c-1.6-0.8-2.9-1.2-4.4-1.2c-1.2,0-2.1,0.4-2.1,1.6c0,3.1,7.6,2.7,7.6,8.2c0,3.2-2.8,5.2-6.5,5.2
				c-2.1,0-4.1-0.5-5.6-1.6L8.7,7.7z"/>
		</g>
		<polygon id="Fill-7" class="st0" points="27.1,-6 37.4,-6 36.5,-3 30.8,-3 30.8,1.3 36.5,1.3 36.5,4.2 30.8,4.2 30.8,8.9 
			37.4,8.9 37.4,11.8 27.1,11.8 		"/>
		<path id="Fill-9" class="st0" d="M51.2,8.7c2,0,3.1-0.7,3.1-2.3c0-1.3-1.1-2.1-2.8-2.1h-2.3v4.5L51.2,8.7L51.2,8.7z M50.7,1.3
			c1.6,0,2.5-0.9,2.5-2.1S52.4-3,50.7-3h-1.3v4.2C49.4,1.3,50.7,1.3,50.7,1.3z M45.5-6h5.6c3.8,0,5.6,2.3,5.6,4.5
			c0,1.5-0.7,2.9-2.1,3.6l0,0c2.1,0.5,3.3,2.3,3.3,4.2c0,2.7-2.1,5.3-6.4,5.3h-6.1L45.5-6L45.5-6z"/>
		<polygon id="Fill-11" class="st0" points="65.3,-6 75.5,-6 74.6,-3 68.9,-3 68.9,1.3 74.6,1.3 74.6,4.2 68.9,4.2 68.9,8.9 
			75.5,8.9 75.5,11.8 65.3,11.8 		"/>
		<polygon id="Fill-13" class="st0" points="83.7,-6 87.3,-6 87.3,8.9 93.6,8.9 93.6,11.8 83.7,11.8 		"/>
	</g>
</g>
</svg>
